<?xml version="1.0" encoding="utf-8"?>
<!-- Generator: Adobe Illustrator 28.0.0, SVG Export Plug-In . SVG Version: 6.00 Build 0)  -->
<svg version="1.1" id="Слой_1" xmlns="http://www.w3.org/2000/svg" xmlns:xlink="http://www.w3.org/1999/xlink" x="0px" y="0px"
	 viewBox="0 0 1000 212.6" style="enable-background:new 0 0 1000 212.6;" xml:space="preserve">
<style type="text/css">
	.st0{fill:#0C0440;}
</style>
<path class="st0" d="M193.6,212.5h-39.9c-7.4,0-14.7-1.8-21.2-5.2c-6.5-3.4-12.2-8.4-16.4-14.5l-25-36.2l-19.6-28.3
	c-0.9-1.3-2.2-2.3-3.7-2.8c-1.5-0.5-3.1-0.5-4.6-0.1c-1.5,0.5-2.8,1.4-3.7,2.7c-0.9,1.3-1.4,2.8-1.4,4.4v68.2c0,3.1-1.2,6.1-3.4,8.3
	c-2.2,2.2-5.2,3.4-8.3,3.4H11.8c-3.1,0-6.1-1.2-8.3-3.5c-2.2-2.2-3.4-5.2-3.5-8.3V150c0-6,1.2-11.9,3.5-17.5
	c2.3-5.5,5.7-10.6,9.9-14.8c4.2-4.2,9.3-7.6,14.8-9.9c5.5-2.3,11.5-3.5,17.5-3.5h9c0.6,0,1.2-0.1,1.7-0.4c0.5-0.3,1-0.7,1.3-1.1
	L91,54.6l24.2-35c4.2-6.1,9.8-11,16.4-14.5c6.5-3.4,13.8-5.2,21.2-5.2h39.9c0.7,0,1.3,0.2,1.9,0.5c0.6,0.3,1,0.8,1.3,1.4
	c0.3,0.6,0.4,1.2,0.4,1.9c0,0.7-0.3,1.3-0.6,1.8L137.2,90c-3.2,4.6-4.9,10.1-4.9,15.7c0,5.6,1.7,11.1,4.9,15.7l59.4,85.5
	c0.4,0.5,0.6,1.2,0.6,1.9c0,0.7-0.1,1.3-0.4,1.9c-0.3,0.6-0.8,1.1-1.4,1.4C194.9,212.4,194.3,212.5,193.6,212.5z"/>
<path class="st0" d="M580.4,208.6h-49.5v-90.5c0-4.2-1.7-8.2-4.6-11.2c-3-3-7-4.6-11.2-4.6s-8.2,1.7-11.2,4.6c-3,3-4.6,7-4.6,11.2
	v90.4h-49.4v-3c0-15.2,0-54.6,0-79.1c0-2.7-0.6-5.4-1.6-8c-1.1-2.5-2.6-4.8-4.5-6.7c-1.9-1.9-4.2-3.4-6.8-4.5c-2.5-1-5.2-1.6-8-1.5
	h-10.8v102.9h-49.3V57.8h2.6c18.7,0,37.4,0.2,56.1,0c18-0.2,34.1,4.4,46.8,17.8c2.1-1.9,4-4,6.2-5.8c8.4-7.1,17.7-12.6,28.7-14.7
	c28.6-5.5,60.6,13.2,68.7,40.5c1.5,5.1,2.3,10.4,2.3,15.7C580.4,143.2,580.4,207.9,580.4,208.6z"/>
<path class="st0" d="M821.5,208.6H772v-90.5c0.1-2.1-0.3-4.2-1-6.2c-0.8-2-1.9-3.8-3.4-5.3c-1.5-1.5-3.2-2.7-5.2-3.6
	c-2-0.8-4.1-1.3-6.2-1.3c-2.1,0-4.2,0.4-6.2,1.3c-2,0.8-3.7,2-5.2,3.6c-1.5,1.5-2.6,3.3-3.4,5.3c-0.8,2-1.1,4.1-1,6.2v90.4H691v-3
	c0-15.2,0-54.6,0-79.1c0-5.5-2.2-10.8-6.1-14.7c-3.9-3.9-9.2-6.1-14.7-6.1h-10.8v102.9h-49.4V57.8h2.6c18.7,0,37.4,0.2,56.1,0
	c18-0.2,34.1,4.4,46.8,17.8c2.1-1.9,4-4,6.2-5.8c8.4-7.1,17.7-12.6,28.7-14.7c28.6-5.5,60.6,13.2,68.7,40.5
	c1.5,5.1,2.3,10.4,2.3,15.7L821.5,208.6z"/>
<path class="st0" d="M190.5,133.5c0-37.6,27.9-71.5,65-77.8c29.2-5,53.3,5.4,72.1,27.8c6.8,7.9,11.9,17,15,27
	c3.1,9.9,4.1,20.4,3,30.7c-2,20.5-11.2,37.5-26.3,51.2c-14.4,13.2-31.6,20.4-51.4,20.1c-26.1-0.4-46.5-12-61.9-32.7
	C195.8,166.5,190.4,150.2,190.5,133.5z M238.1,133.5c0,5.3,1.2,10.5,3.6,15.2c1.9,4.3,4.9,8.1,8.7,11.1c3.8,2.9,8.2,4.9,12.8,5.7
	c4.7,0.8,9.5,0.5,14-1c4.5-1.5,8.6-4,11.9-7.5c5.1-5.5,8.2-12.5,8.9-19.9c0.7-7.4-1-14.9-4.9-21.3c-3.8-6.6-10-11.4-17.3-13.4
	c-7.3-2-15.1-1-21.7,2.7C243.3,111.3,238.8,121.4,238.1,133.5L238.1,133.5z"/>
<path class="st0" d="M1000,130.4c0.1,41.9-29.8,76.7-68.2,81.5c-26.6,3.4-48.8-6.1-66.7-25.7c-11.3-12.1-18.4-27.6-20.1-44.1
	c-2.4-22.6,4.2-42.5,18.8-59.8c11.7-14.4,28.3-24,46.7-26.9c23.7-3.7,44.6,2.9,62.3,18.8C990.5,90.1,999.6,109.8,1000,130.4z
	 M952.3,133.5c0-5.1-1.2-10.1-3.4-14.7c-10-21.5-34.7-21.3-46.1-10c-4.5,4.2-7.8,9.5-9.5,15.4c-1.7,5.9-1.7,12.2,0,18.1
	c4.5,17.9,21.6,27.5,38.3,21.9C943.7,160.2,952.3,147.4,952.3,133.5z"/>
</svg>
